{
	"asset":{
		"generator":"Khronos glTF Blender I/O v4.4.56",
		"version":"2.0"
	},
	"scene":0,
	"scenes":[
		{
			"name":"Scene",
			"nodes":[
				0,
				1,
				2,
				3,
				4,
				5
			]
		}
	],
	"nodes":[
		{
			"mesh":0,
			"name":"Plane"
		},
		{
			"mesh":1,
			"name":"Cabinet"
		},
		{
			"mesh":2,
			"name":"RightSling"
		},
		{
			"mesh":3,
			"name":"LeftSling"
		},
		{
			"mesh":4,
			"name":"LeftChannel"
		},
		{
			"mesh":5,
			"name":"RightChannel"
		}
	],
	"meshes":[
		{
			"name":"Plane",
			"primitives":[
				{
					"attributes":{
						"POSITION":0,
						"NORMAL":1,
						"TEXCOORD_0":2
					},
					"indices":3
				}
			]
		},
		{
			"name":"Cabinet",
			"primitives":[
				{
					"attributes":{
						"POSITION":4,
						"NORMAL":5,
						"TEXCOORD_0":6
					},
					"indices":7
				}
			]
		},
		{
			"name":"RightSling",
			"primitives":[
				{
					"attributes":{
						"POSITION":8,
						"NORMAL":9,
						"TEXCOORD_0":10
					},
					"indices":11
				}
			]
		},
		{
			"name":"LeftSling",
			"primitives":[
				{
					"attributes":{
						"POSITION":12,
						"NORMAL":13,
						"TEXCOORD_0":14
					},
					"indices":11
				}
			]
		},
		{
			"name":"LeftChannel",
			"primitives":[
				{
					"attributes":{
						"POSITION":15,
						"NORMAL":16,
						"TEXCOORD_0":17
					},
					"indices":18
				}
			]
		},
		{
			"name":"RightChannel",
			"primitives":[
				{
					"attributes":{
						"POSITION":19,
						"NORMAL":20,
						"TEXCOORD_0":21
					},
					"indices":22
				}
			]
		}
	],
	"accessors":[
		{
			"bufferView":0,
			"componentType":5126,
			"count":390,
			"max":[
				1,
				0.11936686187982559,
				2.000288963317871
			],
			"min":[
				-1,
				-0.09229189902544022,
				-1
			],
			"type":"VEC3"
		},
		{
			"bufferView":1,
			"componentType":5126,
			"count":390,
			"type":"VEC3"
		},
		{
			"bufferView":2,
			"componentType":5126,
			"count":390,
			"type":"VEC2"
		},
		{
			"bufferView":3,
			"componentType":5123,
			"count":768,
			"type":"SCALAR"
		},
		{
			"bufferView":4,
			"componentType":5126,
			"count":67,
			"max":[
				1.0996776819229126,
				0,
				2.3016767501831055
			],
			"min":[
				-1.1001569032669067,
				0,
				-1.1001111268997192
			],
			"type":"VEC3"
		},
		{
			"bufferView":5,
			"componentType":5126,
			"count":67,
			"type":"VEC3"
		},
		{
			"bufferView":6,
			"componentType":5126,
			"count":67,
			"type":"VEC2"
		},
		{
			"bufferView":7,
			"componentType":5123,
			"count":201,
			"type":"SCALAR"
		},
		{
			"bufferView":8,
			"componentType":5126,
			"count":21,
			"max":[
				0.699351966381073,
				0,
				1.671101689338684
			],
			"min":[
				0.3426003158092499,
				0,
				1.0802398920059204
			],
			"type":"VEC3"
		},
		{
			"bufferView":9,
			"componentType":5126,
			"count":21,
			"type":"VEC3"
		},
		{
			"bufferView":10,
			"componentType":5126,
			"count":21,
			"type":"VEC2"
		},
		{
			"bufferView":11,
			"componentType":5123,
			"count":57,
			"type":"SCALAR"
		},
		{
			"bufferView":12,
			"componentType":5126,
			"count":21,
			"max":[
				-0.34032726287841797,
				0,
				1.671101689338684
			],
			"min":[
				-0.6970789432525635,
				0,
				1.0802398920059204
			],
			"type":"VEC3"
		},
		{
			"bufferView":13,
			"componentType":5126,
			"count":21,
			"type":"VEC3"
		},
		{
			"bufferView":14,
			"componentType":5126,
			"count":21,
			"type":"VEC2"
		},
		{
			"bufferView":15,
			"componentType":5126,
			"count":59,
			"max":[
				-0.40831437706947327,
				0,
				1.9084124565124512
			],
			"min":[
				-0.8809072971343994,
				0,
				0.9607781171798706
			],
			"type":"VEC3"
		},
		{
			"bufferView":16,
			"componentType":5126,
			"count":59,
			"type":"VEC3"
		},
		{
			"bufferView":17,
			"componentType":5126,
			"count":59,
			"type":"VEC2"
		},
		{
			"bufferView":18,
			"componentType":5123,
			"count":210,
			"type":"SCALAR"
		},
		{
			"bufferView":19,
			"componentType":5126,
			"count":65,
			"max":[
				0.8805601596832275,
				0,
				1.9084124565124512
			],
			"min":[
				0.407967209815979,
				0,
				1.1149390935897827
			],
			"type":"VEC3"
		},
		{
			"bufferView":20,
			"componentType":5126,
			"count":65,
			"type":"VEC3"
		},
		{
			"bufferView":21,
			"componentType":5126,
			"count":65,
			"type":"VEC2"
		},
		{
			"bufferView":22,
			"componentType":5123,
			"count":228,
			"type":"SCALAR"
		}
	],
	"bufferViews":[
		{
			"buffer":0,
			"byteLength":4680,
			"byteOffset":0,
			"target":34962
		},
		{
			"buffer":0,
			"byteLength":4680,
			"byteOffset":4680,
			"target":34962
		},
		{
			"buffer":0,
			"byteLength":3120,
			"byteOffset":9360,
			"target":34962
		},
		{
			"buffer":0,
			"byteLength":1536,
			"byteOffset":12480,
			"target":34963
		},
		{
			"buffer":0,
			"byteLength":804,
			"byteOffset":14016,
			"target":34962
		},
		{
			"buffer":0,
			"byteLength":804,
			"byteOffset":14820,
			"target":34962
		},
		{
			"buffer":0,
			"byteLength":536,
			"byteOffset":15624,
			"target":34962
		},
		{
			"buffer":0,
			"byteLength":402,
			"byteOffset":16160,
			"target":34963
		},
		{
			"buffer":0,
			"byteLength":252,
			"byteOffset":16564,
			"target":34962
		},
		{
			"buffer":0,
			"byteLength":252,
			"byteOffset":16816,
			"target":34962
		},
		{
			"buffer":0,
			"byteLength":168,
			"byteOffset":17068,
			"target":34962
		},
		{
			"buffer":0,
			"byteLength":114,
			"byteOffset":17236,
			"target":34963
		},
		{
			"buffer":0,
			"byteLength":252,
			"byteOffset":17352,
			"target":34962
		},
		{
			"buffer":0,
			"byteLength":252,
			"byteOffset":17604,
			"target":34962
		},
		{
			"buffer":0,
			"byteLength":168,
			"byteOffset":17856,
			"target":34962
		},
		{
			"buffer":0,
			"byteLength":708,
			"byteOffset":18024,
			"target":34962
		},
		{
			"buffer":0,
			"byteLength":708,
			"byteOffset":18732,
			"target":34962
		},
		{
			"buffer":0,
			"byteLength":472,
			"byteOffset":19440,
			"target":34962
		},
		{
			"buffer":0,
			"byteLength":420,
			"byteOffset":19912,
			"target":34963
		},
		{
			"buffer":0,
			"byteLength":780,
			"byteOffset":20332,
			"target":34962
		},
		{
			"buffer":0,
			"byteLength":780,
			"byteOffset":21112,
			"target":34962
		},
		{
			"buffer":0,
			"byteLength":520,
			"byteOffset":21892,
			"target":34962
		},
		{
			"buffer":0,
			"byteLength":456,
			"byteOffset":22412,
			"target":34963
		}
	],
	"buffers":[
		{
			"byteLength":22868,
			"uri":"cabinet.bin"
		}
	]
}
