{
	"asset":{
		"generator":"Khronos glTF Blender I/O v4.4.56",
		"version":"2.0"
	},
	"scene":0,
	"scenes":[
		{
			"name":"Scene",
			"nodes":[
				0,
				1,
				2,
				3,
				4,
				5,
				6,
				7
			]
		}
	],
	"nodes":[
		{
			"mesh":0,
			"name":"Plane"
		},
		{
			"mesh":1,
			"name":"Cabinet"
		},
		{
			"mesh":2,
			"name":"LeftSling"
		},
		{
			"mesh":3,
			"name":"RightChannel"
		},
		{
			"mesh":4,
			"name":"RightSling"
		},
		{
			"mesh":5,
			"name":"LeftChannel"
		},
		{
			"mesh":6,
			"name":"LeftSensor"
		},
		{
			"mesh":7,
			"name":"RightSensor"
		}
	],
	"meshes":[
		{
			"name":"Plane",
			"primitives":[
				{
					"attributes":{
						"POSITION":0,
						"NORMAL":1,
						"TEXCOORD_0":2
					},
					"indices":3
				}
			]
		},
		{
			"name":"Cabinet",
			"primitives":[
				{
					"attributes":{
						"POSITION":4,
						"NORMAL":5,
						"TEXCOORD_0":6
					},
					"indices":7
				}
			]
		},
		{
			"name":"LeftSling",
			"primitives":[
				{
					"attributes":{
						"POSITION":8,
						"NORMAL":9,
						"TEXCOORD_0":10
					},
					"indices":11
				}
			]
		},
		{
			"name":"RightChannel",
			"primitives":[
				{
					"attributes":{
						"POSITION":12,
						"NORMAL":13,
						"TEXCOORD_0":14
					},
					"indices":15
				}
			]
		},
		{
			"name":"RightSling",
			"primitives":[
				{
					"attributes":{
						"POSITION":16,
						"NORMAL":17,
						"TEXCOORD_0":18
					},
					"indices":11
				}
			]
		},
		{
			"name":"LeftChannel",
			"primitives":[
				{
					"attributes":{
						"POSITION":19,
						"NORMAL":20,
						"TEXCOORD_0":21
					},
					"indices":15
				}
			]
		},
		{
			"name":"LeftSensor",
			"primitives":[
				{
					"attributes":{
						"POSITION":22,
						"NORMAL":23,
						"TEXCOORD_0":24
					},
					"indices":25
				}
			]
		},
		{
			"name":"RightSensor",
			"primitives":[
				{
					"attributes":{
						"POSITION":26,
						"NORMAL":27,
						"TEXCOORD_0":28
					},
					"indices":29
				}
			]
		}
	],
	"accessors":[
		{
			"bufferView":0,
			"componentType":5126,
			"count":390,
			"max":[
				1,
				0.11936686187982559,
				2.000288963317871
			],
			"min":[
				-1,
				-0.09229189902544022,
				-1
			],
			"type":"VEC3"
		},
		{
			"bufferView":1,
			"componentType":5126,
			"count":390,
			"type":"VEC3"
		},
		{
			"bufferView":2,
			"componentType":5126,
			"count":390,
			"type":"VEC2"
		},
		{
			"bufferView":3,
			"componentType":5123,
			"count":768,
			"type":"SCALAR"
		},
		{
			"bufferView":4,
			"componentType":5126,
			"count":23,
			"max":[
				1.100000023841858,
				0,
				2.299999952316284
			],
			"min":[
				-1.100000023841858,
				0,
				-1.100000023841858
			],
			"type":"VEC3"
		},
		{
			"bufferView":5,
			"componentType":5126,
			"count":23,
			"type":"VEC3"
		},
		{
			"bufferView":6,
			"componentType":5126,
			"count":23,
			"type":"VEC2"
		},
		{
			"bufferView":7,
			"componentType":5123,
			"count":63,
			"type":"SCALAR"
		},
		{
			"bufferView":8,
			"componentType":5126,
			"count":4,
			"max":[
				-0.3505840599536896,
				0,
				1.649999976158142
			],
			"min":[
				-0.7005839943885803,
				0,
				1.100000023841858
			],
			"type":"VEC3"
		},
		{
			"bufferView":9,
			"componentType":5126,
			"count":4,
			"type":"VEC3"
		},
		{
			"bufferView":10,
			"componentType":5126,
			"count":4,
			"type":"VEC2"
		},
		{
			"bufferView":11,
			"componentType":5123,
			"count":6,
			"type":"SCALAR"
		},
		{
			"bufferView":12,
			"componentType":5126,
			"count":7,
			"max":[
				0.8899999856948853,
				0,
				1.9199999570846558
			],
			"min":[
				0.3499999940395355,
				0,
				0.8999999761581421
			],
			"type":"VEC3"
		},
		{
			"bufferView":13,
			"componentType":5126,
			"count":7,
			"type":"VEC3"
		},
		{
			"bufferView":14,
			"componentType":5126,
			"count":7,
			"type":"VEC2"
		},
		{
			"bufferView":15,
			"componentType":5123,
			"count":15,
			"type":"SCALAR"
		},
		{
			"bufferView":16,
			"componentType":5126,
			"count":4,
			"max":[
				0.6988388895988464,
				0,
				1.649999976158142
			],
			"min":[
				0.3488389253616333,
				0,
				1.100000023841858
			],
			"type":"VEC3"
		},
		{
			"bufferView":17,
			"componentType":5126,
			"count":4,
			"type":"VEC3"
		},
		{
			"bufferView":18,
			"componentType":5126,
			"count":4,
			"type":"VEC2"
		},
		{
			"bufferView":19,
			"componentType":5126,
			"count":7,
			"max":[
				-0.3499999940395355,
				0,
				1.9199999570846558
			],
			"min":[
				-0.8901349306106567,
				0,
				0.8999999761581421
			],
			"type":"VEC3"
		},
		{
			"bufferView":20,
			"componentType":5126,
			"count":7,
			"type":"VEC3"
		},
		{
			"bufferView":21,
			"componentType":5126,
			"count":7,
			"type":"VEC2"
		},
		{
			"bufferView":22,
			"componentType":5126,
			"count":4,
			"max":[
				-0.37363922595977783,
				0,
				1.5274919271469116
			],
			"min":[
				-0.6512042284011841,
				0,
				1.1837854385375977
			],
			"type":"VEC3"
		},
		{
			"bufferView":23,
			"componentType":5126,
			"count":4,
			"type":"VEC3"
		},
		{
			"bufferView":24,
			"componentType":5126,
			"count":4,
			"type":"VEC2"
		},
		{
			"bufferView":25,
			"componentType":5123,
			"count":6,
			"type":"SCALAR"
		},
		{
			"bufferView":26,
			"componentType":5126,
			"count":4,
			"max":[
				0.6344982385635376,
				0,
				1.5377540588378906
			],
			"min":[
				0.36564451456069946,
				0,
				1.1917357444763184
			],
			"type":"VEC3"
		},
		{
			"bufferView":27,
			"componentType":5126,
			"count":4,
			"type":"VEC3"
		},
		{
			"bufferView":28,
			"componentType":5126,
			"count":4,
			"type":"VEC2"
		},
		{
			"bufferView":29,
			"componentType":5123,
			"count":6,
			"type":"SCALAR"
		}
	],
	"bufferViews":[
		{
			"buffer":0,
			"byteLength":4680,
			"byteOffset":0,
			"target":34962
		},
		{
			"buffer":0,
			"byteLength":4680,
			"byteOffset":4680,
			"target":34962
		},
		{
			"buffer":0,
			"byteLength":3120,
			"byteOffset":9360,
			"target":34962
		},
		{
			"buffer":0,
			"byteLength":1536,
			"byteOffset":12480,
			"target":34963
		},
		{
			"buffer":0,
			"byteLength":276,
			"byteOffset":14016,
			"target":34962
		},
		{
			"buffer":0,
			"byteLength":276,
			"byteOffset":14292,
			"target":34962
		},
		{
			"buffer":0,
			"byteLength":184,
			"byteOffset":14568,
			"target":34962
		},
		{
			"buffer":0,
			"byteLength":126,
			"byteOffset":14752,
			"target":34963
		},
		{
			"buffer":0,
			"byteLength":48,
			"byteOffset":14880,
			"target":34962
		},
		{
			"buffer":0,
			"byteLength":48,
			"byteOffset":14928,
			"target":34962
		},
		{
			"buffer":0,
			"byteLength":32,
			"byteOffset":14976,
			"target":34962
		},
		{
			"buffer":0,
			"byteLength":12,
			"byteOffset":15008,
			"target":34963
		},
		{
			"buffer":0,
			"byteLength":84,
			"byteOffset":15020,
			"target":34962
		},
		{
			"buffer":0,
			"byteLength":84,
			"byteOffset":15104,
			"target":34962
		},
		{
			"buffer":0,
			"byteLength":56,
			"byteOffset":15188,
			"target":34962
		},
		{
			"buffer":0,
			"byteLength":30,
			"byteOffset":15244,
			"target":34963
		},
		{
			"buffer":0,
			"byteLength":48,
			"byteOffset":15276,
			"target":34962
		},
		{
			"buffer":0,
			"byteLength":48,
			"byteOffset":15324,
			"target":34962
		},
		{
			"buffer":0,
			"byteLength":32,
			"byteOffset":15372,
			"target":34962
		},
		{
			"buffer":0,
			"byteLength":84,
			"byteOffset":15404,
			"target":34962
		},
		{
			"buffer":0,
			"byteLength":84,
			"byteOffset":15488,
			"target":34962
		},
		{
			"buffer":0,
			"byteLength":56,
			"byteOffset":15572,
			"target":34962
		},
		{
			"buffer":0,
			"byteLength":48,
			"byteOffset":15628,
			"target":34962
		},
		{
			"buffer":0,
			"byteLength":48,
			"byteOffset":15676,
			"target":34962
		},
		{
			"buffer":0,
			"byteLength":32,
			"byteOffset":15724,
			"target":34962
		},
		{
			"buffer":0,
			"byteLength":12,
			"byteOffset":15756,
			"target":34963
		},
		{
			"buffer":0,
			"byteLength":48,
			"byteOffset":15768,
			"target":34962
		},
		{
			"buffer":0,
			"byteLength":48,
			"byteOffset":15816,
			"target":34962
		},
		{
			"buffer":0,
			"byteLength":32,
			"byteOffset":15864,
			"target":34962
		},
		{
			"buffer":0,
			"byteLength":12,
			"byteOffset":15896,
			"target":34963
		}
	],
	"buffers":[
		{
			"byteLength":15908,
			"uri":"cabinet.bin"
		}
	]
}
